<svg width="71" height="51" viewBox="0 0 71 51" fill="none" xmlns="http://www.w3.org/2000/svg">
<g clip-path="url(#paint0_diamond_2031_6_clip_path)" data-figma-skip-parse="true"><g transform="matrix(0 0.0255 -0.0355 0 35.5 25.5)"><rect x="0" y="0" width="1039.22" height="1028.17" fill="url(#paint0_diamond_2031_6)" opacity="1" shape-rendering="crispEdges"/><rect x="0" y="0" width="1039.22" height="1028.17" transform="scale(1 -1)" fill="url(#paint0_diamond_2031_6)" opacity="1" shape-rendering="crispEdges"/><rect x="0" y="0" width="1039.22" height="1028.17" transform="scale(-1 1)" fill="url(#paint0_diamond_2031_6)" opacity="1" shape-rendering="crispEdges"/><rect x="0" y="0" width="1039.22" height="1028.17" transform="scale(-1)" fill="url(#paint0_diamond_2031_6)" opacity="1" shape-rendering="crispEdges"/></g></g><rect width="71" height="51" data-figma-gradient-fill="{&#34;type&#34;:&#34;GRADIENT_DIAMOND&#34;,&#34;stops&#34;:[{&#34;color&#34;:{&#34;r&#34;:1.0,&#34;g&#34;:1.0,&#34;b&#34;:1.0,&#34;a&#34;:1.0},&#34;position&#34;:0.50},{&#34;color&#34;:{&#34;r&#34;:0.22745098173618317,&#34;g&#34;:0.039215687662363052,&#34;b&#34;:0.36862745881080627,&#34;a&#34;:1.0},&#34;position&#34;:0.69999998807907104},{&#34;color&#34;:{&#34;r&#34;:0.0,&#34;g&#34;:0.0,&#34;b&#34;:0.0,&#34;a&#34;:1.0},&#34;position&#34;:1.0}],&#34;stopsVar&#34;:[{&#34;color&#34;:{&#34;r&#34;:1.0,&#34;g&#34;:1.0,&#34;b&#34;:1.0,&#34;a&#34;:1.0},&#34;position&#34;:0.50},{&#34;color&#34;:{&#34;r&#34;:0.22745098173618317,&#34;g&#34;:0.039215687662363052,&#34;b&#34;:0.36862745881080627,&#34;a&#34;:1.0},&#34;position&#34;:0.69999998807907104},{&#34;color&#34;:{&#34;r&#34;:0.0,&#34;g&#34;:0.0,&#34;b&#34;:0.0,&#34;a&#34;:1.0},&#34;position&#34;:1.0}],&#34;transform&#34;:{&#34;m00&#34;:4.3474961281539989e-15,&#34;m01&#34;:-71.0,&#34;m02&#34;:71.0,&#34;m10&#34;:51.0,&#34;m11&#34;:3.1228495402666270e-15,&#34;m12&#34;:-3.1228495402666270e-15},&#34;opacity&#34;:1.0,&#34;blendMode&#34;:&#34;NORMAL&#34;,&#34;visible&#34;:true}"/>
<path d="M36.4684 22.7296C36.2121 22.5701 35.9522 22.4525 35.6886 22.3771C35.4253 22.2976 35.1611 22.2634 34.896 22.2744C34.6331 22.2837 34.373 22.3406 34.1158 22.4451C33.8586 22.5497 33.6093 22.7033 33.3677 22.906C32.9716 23.2383 32.6973 23.6428 32.5447 24.1195C32.3921 24.5962 32.3871 25.114 32.5298 25.6729C32.6724 26.2319 32.9866 26.8008 33.4724 27.3797C33.9581 27.9586 34.4649 28.3659 34.9928 28.6016C35.5206 28.8373 36.0358 28.9187 36.5382 28.8457C37.0407 28.7727 37.4987 28.5627 37.9121 28.2158C38.2952 27.8944 38.564 27.5297 38.7187 27.1218C38.8737 26.7099 38.9068 26.2853 38.818 25.848C38.7296 25.4067 38.5137 24.9815 38.1704 24.5724L38.4623 24.4164L36.4515 26.1037L35.8488 25.3856L38.3951 23.249L38.9977 23.9672C39.4597 24.5178 39.7439 25.0952 39.8504 25.6994C39.959 26.3017 39.9017 26.8875 39.6785 27.4568C39.4556 28.0221 39.0786 28.5275 38.5476 28.9731C37.9557 29.4698 37.3187 29.767 36.6366 29.8646C35.9568 29.9604 35.2762 29.8565 34.595 29.5529C33.9159 29.2475 33.2806 28.7422 32.6889 28.0371C32.2452 27.5082 31.9169 26.9734 31.7041 26.4325C31.4916 25.8876 31.3909 25.3565 31.4019 24.8392C31.4128 24.322 31.5301 23.8341 31.7537 23.3758C31.9773 22.9174 32.3035 22.5084 32.7322 22.1487C33.0848 21.8528 33.4581 21.6304 33.8523 21.4814C34.2468 21.3284 34.645 21.2483 35.0469 21.2411C35.4492 21.2299 35.8431 21.2906 36.2288 21.4231C36.6126 21.5535 36.971 21.7553 37.3041 22.0284L36.4684 22.7296Z" fill="black"/>
<defs>
<clipPath id="paint0_diamond_2031_6_clip_path"><rect width="71" height="51"/></clipPath><linearGradient id="paint0_diamond_2031_6" x1="0" y1="0" x2="500" y2="500" gradientUnits="userSpaceOnUse">
<stop offset="0.5" stop-color="white"/>
<stop offset="0.7" stop-color="#3A0A5E"/>
<stop offset="1"/>
</linearGradient>
</defs>
</svg>
